<?xml version="1.0" encoding="UTF-8" standalone="no"?>
<!-- Created with Inkscape (http://www.inkscape.org/) -->

<svg
   xmlns:dc="http://purl.org/dc/elements/1.1/"
   xmlns:cc="http://creativecommons.org/ns#"
   xmlns:rdf="http://www.w3.org/1999/02/22-rdf-syntax-ns#"
   xmlns:svg="http://www.w3.org/2000/svg"
   xmlns="http://www.w3.org/2000/svg"
   xmlns:sodipodi="http://sodipodi.sourceforge.net/DTD/sodipodi-0.dtd"
   xmlns:inkscape="http://www.inkscape.org/namespaces/inkscape"
   width="210mm"
   height="297mm"
   viewBox="0 0 210 297"
   version="1.1"
   id="svg8"
   inkscape:version="0.92.2 (5c3e80d, 2017-08-06)"
   sodipodi:docname="binarylogo2typex.svg">
  <defs
     id="defs2" />
  <sodipodi:namedview
     id="base"
     pagecolor="#ffffff"
     bordercolor="#666666"
     borderopacity="1.0"
     inkscape:pageopacity="0.0"
     inkscape:pageshadow="2"
     inkscape:zoom="0.49497475"
     inkscape:cx="265.52581"
     inkscape:cy="621.53265"
     inkscape:document-units="mm"
     inkscape:current-layer="layer1"
     showgrid="false"
     inkscape:window-width="1280"
     inkscape:window-height="692"
     inkscape:window-x="0"
     inkscape:window-y="23"
     inkscape:window-maximized="0" />
  <metadata
     id="metadata5">
    <rdf:RDF>
      <cc:Work
         rdf:about="">
        <dc:format>image/svg+xml</dc:format>
        <dc:type
           rdf:resource="http://purl.org/dc/dcmitype/StillImage" />
        <dc:title></dc:title>
      </cc:Work>
    </rdf:RDF>
  </metadata>
  <g
     inkscape:label="Layer 1"
     inkscape:groupmode="layer"
     id="layer1">
    <path
       style="fill:#ffe02e;fill-opacity:1;stroke:#ffe02e;stroke-width:0.75595242;stroke-opacity:1"
       d="M 98.54895,100.35595 C 88.845736,98.49316 80.417654,92.76968 74.58229,84.08027 71.0107,78.76183 69.225075,69.14138 70.51276,62.15472 73.492574,45.98698 87.703107,34.541983 104.97545,34.39887 c 10.43724,-0.08648 18.26212,2.94416 25.55973,9.89949 4.75034,4.52754 7.16224,8.53334 9.12886,15.16168 4.67158,15.74515 -5.22211,33.72763 -21.62879,39.31182 -5.35921,1.82407 -14.40556,2.55947 -19.4863,1.58409 z m 17.5743,-9.08775 c 5.7018,-2.13332 11.71242,-7.65388 14.5448,-13.35892 3.11699,-6.27831 3.17438,-13.83141 0.15415,-20.28734 -2.83155,-6.05263 -8.15855,-10.98154 -14.69789,-13.59952 -22.874005,-9.157463 -46.371986,13.5051 -35.697658,34.42852 3.223215,6.31802 11.182792,12.41159 18.686178,14.30547 4.17768,1.05446 12.05695,0.36512 17.01042,-1.48821 z"
       id="path4634"
       inkscape:connector-curvature="0" />
    <path
       style="fill:#ffe02e;fill-opacity:1;stroke:#ffe02e;stroke-width:0.75595242;stroke-opacity:1"
       d="m 47.900135,119.08611 v -4.90844 l 51.593745,-0.19424 51.59375,-0.19423 0.2392,-2.07887 c 0.29378,-2.5532 0.58487,-2.56462 4.12104,-0.16174 2.80417,1.90549 2.82131,1.94913 2.82131,7.18155 v 5.26442 H 103.08466 47.900135 Z"
       id="path4636"
       inkscape:connector-curvature="0" />
    <path
       style="fill:#ffe02e;fill-opacity:1;stroke:#ffe02e;stroke-width:0.75595242;stroke-opacity:1"
       d="m 96.810414,221.91138 c -7.663968,-2.07802 -11.292776,-4.14414 -16.552584,-9.42446 -9.368499,-9.40503 -12.159263,-20.83195 -8.14415,-33.34663 1.422688,-4.43435 3.115918,-7.10434 7.353977,-11.59617 7.417319,-7.86146 14.45719,-10.85435 25.773923,-10.95738 9.46292,-0.0862 15.58273,1.80382 22.3809,6.91191 16.59353,12.46825 18.06174,35.18681 3.19024,49.36473 -2.44662,2.33252 -5.59949,4.83619 -7.00638,5.56372 -8.78206,4.54138 -18.48058,5.79314 -26.995926,3.48428 z m 19.958916,-8.93549 c 6.1382,-2.42709 11.54718,-7.498 14.31991,-13.42488 1.75655,-3.75473 2.11385,-5.51194 2.0751,-10.20536 -0.0397,-4.81282 -0.40512,-6.36879 -2.41773,-10.29596 -5.54566,-10.82111 -18.28402,-17.12232 -29.80391,-14.74292 -18.715013,3.86552 -28.351299,22.03746 -19.691627,37.13412 5.264716,9.17814 16.44469,14.88677 27.014317,13.79383 2.07887,-0.21496 5.90564,-1.23144 8.50394,-2.25883 z"
       id="path4638"
       inkscape:connector-curvature="0" />
    <path
       style="fill:#ffe12e;fill-opacity:1;stroke:#ffe02e;stroke-width:0.75595242;stroke-opacity:1"
       d="m 48.167171,240.90161 v -4.91369 h 51.734844 51.734835 l 0.23689,-2.2579 0.23688,-2.2579 3.2128,1.92277 3.2128,1.92277 v 5.24882 5.24881 H 103.3517 48.167171 Z"
       id="path4642"
       inkscape:connector-curvature="0" />
    <path
       style="fill:#3dc2ff;fill-opacity:1;stroke:#3dc2ff;stroke-width:0.26726952;stroke-opacity:0"
       d="m 45.105382,200.1172 v -53.58754 h 58.532018 58.53203 v 53.58754 53.58754 H 103.6374 45.105382 Z m 115.727698,0 V 147.86601 H 103.6374 46.441722 v 52.25119 52.25119 h 57.195678 57.19568 z"
       id="path4646"
       inkscape:connector-curvature="0" />
  </g>
</svg>
